<svg width="642" height="317" viewBox="0 0 642 317" fill="none" xmlns="http://www.w3.org/2000/svg">
<g clip-path="url(#clip0_5993_388)">
<path d="M158.501 238.465C137.293 238.465 116.954 230.04 101.958 215.044C86.9616 200.048 78.5369 179.709 78.5369 158.501C78.5369 137.293 86.9616 116.954 101.958 101.958C116.954 86.9616 137.293 78.5369 158.501 78.5369V51.4062C99.3846 51.4062 51.4062 99.3846 51.4062 158.501C51.4062 217.617 99.3846 265.595 158.501 265.595V238.465Z" fill="url(#paint0_linear_5993_388)"/>
<path d="M158.5 184.202C172.695 184.202 184.202 172.695 184.202 158.5C184.202 144.304 172.695 132.797 158.5 132.797C144.304 132.797 132.797 144.304 132.797 158.5C132.797 172.695 144.304 184.202 158.5 184.202Z" fill="url(#paint1_linear_5993_388)"/>
<path d="M158.5 78.5352V105.666C172.512 105.666 185.951 111.232 195.859 121.14C205.767 131.048 211.333 144.487 211.333 158.499C211.333 172.511 205.767 185.95 195.859 195.858C185.951 205.766 172.512 211.332 158.5 211.332V238.463C179.708 238.463 200.047 230.038 215.043 215.042C230.039 200.046 238.464 179.707 238.464 158.499C238.464 137.291 230.039 116.952 215.043 101.956C200.047 86.9599 179.708 78.5352 158.5 78.5352V78.5352Z" fill="url(#paint2_linear_5993_388)"/>
<path d="M158.499 184.204C153.416 184.204 148.447 182.697 144.22 179.872C139.993 177.048 136.699 173.034 134.753 168.337C132.808 163.641 132.299 158.473 133.291 153.487C134.282 148.501 136.73 143.921 140.325 140.327C143.919 136.732 148.499 134.284 153.485 133.292C158.471 132.301 163.639 132.81 168.335 134.755C173.032 136.701 177.046 139.995 179.87 144.222C182.695 148.448 184.202 153.418 184.202 158.501H211.333C211.333 148.052 208.234 137.837 202.429 129.149C196.623 120.46 188.372 113.689 178.718 109.69C169.064 105.691 158.441 104.645 148.192 106.683C137.943 108.722 128.529 113.754 121.141 121.143C113.752 128.531 108.72 137.945 106.681 148.194C104.643 158.443 105.689 169.066 109.688 178.72C113.687 188.374 120.458 196.625 129.147 202.431C137.835 208.236 148.05 211.335 158.499 211.335V184.204Z" fill="url(#paint3_linear_5993_388)"/>
<path d="M291.326 197.3H291.247L282.639 181.347H277.664L289.042 202.075L288.882 202.36C287.779 204.599 286.432 206.113 283.701 206.113C282.901 206.105 282.104 205.996 281.331 205.787V209.7C282.265 210.076 283.266 210.257 284.273 210.231C288.271 210.231 291.001 207.907 292.96 203.583L302.956 181.347H298.346L291.326 197.3ZM326.973 193.382H312.894V181.347H308.433V209.906H312.917V197.46H326.996V209.906H331.48V181.347H326.996L326.973 193.382ZM344.377 202.56H344.257V181.347H339.767V209.906H343.846L359.467 188.692H359.553V209.906H364.037V181.347H359.958L344.377 202.56ZM388.797 194.564C389.871 194.06 390.778 193.257 391.407 192.251C392.036 191.245 392.361 190.079 392.344 188.892C392.344 184.814 388.877 181.347 383.776 181.347H372.353V209.906H384.399C389.911 209.906 393.783 206.027 393.783 201.544C393.772 197.791 390.876 195.341 388.797 194.564ZM376.842 185.225H383.776C386.227 185.225 387.854 186.853 387.854 189.098C387.854 191.343 386.227 192.976 383.776 192.976H376.842V185.225ZM384.399 206.027H376.842V196.649H384.399C387.255 196.649 389.294 198.688 389.294 201.338C389.294 203.988 387.255 206.027 384.399 206.027ZM404.961 197.134H417.407V193.056H404.927V185.425H420.634V181.347H400.443V209.906H421.045V205.827H404.927L404.961 197.134ZM438.597 181.347H427.174V209.906H431.658V199.705H438.597C444.103 199.705 448.182 195.626 448.182 190.526C448.182 185.425 444.069 181.347 438.563 181.347H438.597ZM438.597 195.626H431.623V185.425H438.563C439.916 185.425 441.213 185.963 442.17 186.919C443.126 187.876 443.664 189.173 443.664 190.526C443.664 191.879 443.126 193.176 442.17 194.132C441.213 195.089 439.916 195.626 438.563 195.626H438.597ZM468.07 206.233C465.257 206.233 462.559 205.116 460.57 203.126C458.581 201.137 457.463 198.439 457.463 195.626C457.463 192.813 458.581 190.115 460.57 188.126C462.559 186.137 465.257 185.02 468.07 185.02C469.691 184.999 471.296 185.344 472.766 186.029C474.235 186.715 475.531 187.722 476.557 188.978L479.699 186.408C478.288 184.69 476.512 183.308 474.501 182.363C472.489 181.417 470.292 180.932 468.07 180.942C459.502 180.942 452.974 187.464 452.974 195.626C452.974 203.788 459.502 210.311 468.07 210.311C470.332 210.312 472.566 209.812 474.611 208.846C476.657 207.88 478.462 206.473 479.899 204.725L476.757 202.155C475.055 204.028 472.439 206.233 468.035 206.233H468.07ZM490.265 202.56H490.14V181.347H485.65V209.906H489.734L505.356 188.692H505.441V209.906H509.925V181.347H505.847L490.265 202.56ZM515.471 185.425H524.039V209.906H528.528V185.425H537.096V181.347H515.437L515.471 185.425ZM547.103 197.134H559.548V193.056H547.068V185.425H562.776V181.347H542.579V209.906H563.175V205.827H547.068L547.103 197.134ZM567.619 181.347V185.425H576.187V209.906H580.676V185.425H589.244V181.347H567.619Z" fill="#505569"/>
<path d="M310.557 130.536L282.803 100.704H278.445V158.501H290.617V125.944L308.854 145.078H312.281L330.519 125.932V158.489H342.691V100.704H338.304L310.557 130.536ZM366.074 135.722V101.383H353.908V159.18H358.615L394.107 124.167V158.501H406.273V100.704H401.567L366.074 135.722ZM443.828 111.802C450.151 111.802 455.788 115.229 459.489 120.849L468.057 112.567C465.288 108.727 461.649 105.597 457.437 103.434C453.226 101.27 448.562 100.135 443.828 100.121C427.39 100.121 413.556 113.087 413.556 129.942C413.556 146.797 427.418 159.763 443.828 159.763C448.562 159.749 453.226 158.614 457.437 156.45C461.649 154.287 465.288 151.157 468.057 147.317L459.489 139.035C455.788 144.655 450.151 148.082 443.828 148.082C434.009 148.082 426.013 140.554 426.013 129.942C426.013 119.33 434.009 111.802 443.828 111.802V111.802ZM488.008 135.722V101.383H475.836V159.18H480.549L516.053 124.167V158.501H528.224V100.704H523.512L488.008 135.722ZM565.762 148.082C555.937 148.082 547.947 140.554 547.947 129.942C547.947 119.33 555.943 111.802 565.762 111.802C572.084 111.802 577.722 115.229 581.417 120.849L589.985 112.567C587.215 108.727 583.576 105.598 579.365 103.435C575.154 101.272 570.49 100.136 565.756 100.121C549.312 100.121 535.45 113.087 535.45 129.942C535.45 146.797 549.312 159.763 565.756 159.763C570.496 159.753 575.166 158.62 579.384 156.457C583.601 154.293 587.246 151.161 590.019 147.317L581.452 139.035C577.722 144.655 572.084 148.082 565.762 148.082V148.082Z" fill="#505569"/>
</g>
<defs>
<linearGradient id="paint0_linear_5993_388" x1="96.3174" y1="256.302" x2="133.232" y2="46.9511" gradientUnits="userSpaceOnUse">
<stop offset="0.05" stop-color="#0541F0"/>
<stop offset="0.21" stop-color="#126CF4"/>
<stop offset="0.44" stop-color="#22A2F9"/>
<stop offset="0.64" stop-color="#2DCAFC"/>
<stop offset="0.8" stop-color="#34E2FE"/>
<stop offset="0.9" stop-color="#37EBFF"/>
</linearGradient>
<linearGradient id="paint1_linear_5993_388" x1="140.325" y1="176.674" x2="176.674" y2="140.325" gradientUnits="userSpaceOnUse">
<stop offset="0.06" stop-color="#37EBFF"/>
<stop offset="0.19" stop-color="#36E7FF"/>
<stop offset="0.32" stop-color="#32DAFE"/>
<stop offset="0.45" stop-color="#2CC6FC"/>
<stop offset="0.58" stop-color="#23A9F9"/>
<stop offset="0.71" stop-color="#1883F6"/>
<stop offset="0.85" stop-color="#0B56F2"/>
<stop offset="0.9" stop-color="#0541F0"/>
</linearGradient>
<linearGradient id="paint2_linear_5993_388" x1="157.535" y1="238.109" x2="210.591" y2="92.3404" gradientUnits="userSpaceOnUse">
<stop offset="0.05" stop-color="#37EBFF"/>
<stop offset="0.16" stop-color="#2DC8FC"/>
<stop offset="0.34" stop-color="#1F98F8"/>
<stop offset="0.51" stop-color="#1472F4"/>
<stop offset="0.66" stop-color="#0C57F2"/>
<stop offset="0.8" stop-color="#0747F1"/>
<stop offset="0.9" stop-color="#0541F0"/>
</linearGradient>
<linearGradient id="paint3_linear_5993_388" x1="115.673" y1="190.39" x2="190.388" y2="115.669" gradientUnits="userSpaceOnUse">
<stop offset="0.11" stop-color="#0541F0"/>
<stop offset="0.89" stop-color="#37EBFF"/>
</linearGradient>
<clipPath id="clip0_5993_388">
<rect width="641.397" height="317" fill="white"/>
</clipPath>
</defs>
</svg>
