<svg width="642" height="317" viewBox="0 0 642 317" fill="none" xmlns="http://www.w3.org/2000/svg">
<g clip-path="url(#clip0_5993_396)">
<path d="M158.518 238.418C137.31 238.418 116.971 229.993 101.975 214.997C86.9788 200.001 78.554 179.662 78.554 158.454C78.554 137.246 86.9788 116.907 101.975 101.911C116.971 86.9148 137.31 78.49 158.518 78.49V51.3594C99.3846 51.3594 51.4062 99.3035 51.4062 158.454C51.4062 217.604 99.3561 265.549 158.501 265.549L158.518 238.418Z" fill="url(#paint0_linear_5993_396)"/>
<path d="M158.517 184.155C172.712 184.155 184.22 172.648 184.22 158.453C184.22 144.258 172.712 132.75 158.517 132.75C144.322 132.75 132.814 144.258 132.814 158.453C132.814 172.648 144.322 184.155 158.517 184.155Z" fill="url(#paint1_linear_5993_396)"/>
<path d="M158.518 78.4922V105.623C172.53 105.623 185.968 111.189 195.876 121.097C205.785 131.006 211.351 144.444 211.351 158.456C211.351 172.468 205.785 185.907 195.876 195.815C185.968 205.723 172.53 211.289 158.518 211.289V238.42C179.725 238.42 200.064 229.995 215.061 214.999C230.057 200.003 238.482 179.664 238.482 158.456C238.482 137.248 230.057 116.909 215.061 101.913C200.064 86.9169 179.725 78.4922 158.518 78.4922V78.4922Z" fill="url(#paint2_linear_5993_396)"/>
<path d="M158.517 184.157C153.433 184.157 148.464 182.65 144.237 179.825C140.01 177.001 136.716 172.987 134.77 168.29C132.825 163.594 132.316 158.426 133.308 153.44C134.299 148.454 136.747 143.874 140.342 140.28C143.937 136.685 148.516 134.237 153.502 133.246C158.488 132.254 163.656 132.763 168.353 134.708C173.049 136.654 177.063 139.948 179.888 144.175C182.712 148.402 184.219 153.371 184.219 158.454H211.333C211.333 148.005 208.234 137.79 202.429 129.102C196.623 120.413 188.372 113.642 178.718 109.643C169.064 105.644 158.441 104.598 148.192 106.636C137.943 108.675 128.529 113.707 121.141 121.096C113.752 128.485 108.72 137.899 106.681 148.147C104.643 158.396 105.689 169.019 109.688 178.673C113.687 188.327 120.458 196.578 129.147 202.384C137.835 208.189 148.05 211.288 158.499 211.288L158.517 184.157Z" fill="url(#paint3_linear_5993_396)"/>
<path d="M310.574 130.489L282.827 100.657H278.463V158.454H290.635V125.897L308.872 145.043H312.299L330.537 125.897V158.454H342.703V100.657H338.344L310.574 130.489ZM366.092 135.67V101.337H353.926V159.128H358.638L394.142 124.115V158.454H406.314V100.657H401.602L366.092 135.67ZM443.851 111.755C450.174 111.755 455.806 115.182 459.507 120.796L468.075 112.514C465.305 108.675 461.665 105.547 457.454 103.385C453.243 101.223 448.579 100.088 443.846 100.074C427.401 100.074 413.539 113.04 413.539 129.895C413.539 146.75 427.401 159.716 443.846 159.716C448.58 159.701 453.243 158.565 457.454 156.402C461.666 154.239 465.305 151.11 468.075 147.27L459.507 138.988C455.806 144.608 450.174 148.035 443.851 148.035C434.027 148.035 426.036 140.507 426.036 129.895C426.036 119.283 434.027 111.755 443.851 111.755ZM488.026 135.67V101.337H475.86V159.128H480.566L516.076 124.115V158.454H528.242V100.657H523.535L488.026 135.67ZM565.779 148.035C555.955 148.035 547.964 140.507 547.964 129.895C547.964 119.283 555.961 111.755 565.779 111.755C572.102 111.755 577.739 115.182 581.441 120.796L590.008 112.514C587.239 108.675 583.6 105.546 579.388 103.384C575.177 101.221 570.513 100.087 565.779 100.074C549.335 100.074 535.473 113.04 535.473 129.895C535.473 146.75 549.335 159.716 565.779 159.716C570.515 159.704 575.182 158.569 579.395 156.406C583.608 154.243 587.249 151.112 590.02 147.27L581.452 138.988C577.739 144.608 572.102 148.035 565.779 148.035V148.035Z" fill="#505569"/>
<path d="M408.245 194.457H408.171V181.32H405.383V199.026H407.914L417.623 185.889H417.675V199.026H420.456V181.32H417.926L408.245 194.457ZM423.849 183.833H429.167V199.009H431.948V183.833H437.26V181.302H423.849V183.833ZM394.502 196.73C392.827 196.631 391.253 195.896 390.102 194.675C388.951 193.454 388.31 191.839 388.31 190.161C388.31 188.483 388.951 186.869 390.102 185.648C391.253 184.427 392.827 183.692 394.502 183.593C395.508 183.579 396.503 183.793 397.414 184.218C398.325 184.643 399.128 185.269 399.763 186.049L401.711 184.455C400.837 183.389 399.737 182.532 398.49 181.945C397.243 181.358 395.881 181.056 394.502 181.063C389.191 181.063 385.141 185.112 385.141 190.173C385.141 195.233 389.191 199.277 394.502 199.277C395.905 199.277 397.29 198.967 398.559 198.367C399.827 197.768 400.946 196.894 401.836 195.81L399.889 194.2C399.239 194.999 398.417 195.642 397.484 196.08C396.552 196.518 395.533 196.74 394.502 196.73V196.73ZM345.427 189.499C346.093 189.186 346.655 188.687 347.045 188.063C347.435 187.439 347.637 186.716 347.626 185.98C347.626 183.45 345.473 181.302 342.315 181.302H335.232V199.009H342.703C346.13 199.009 348.523 196.604 348.523 193.823C348.492 192.877 348.182 191.961 347.631 191.191C347.08 190.422 346.313 189.833 345.427 189.499V189.499ZM338.002 183.707H342.303C342.628 183.691 342.953 183.742 343.259 183.855C343.564 183.969 343.843 184.143 344.079 184.368C344.314 184.592 344.502 184.862 344.63 185.162C344.759 185.461 344.825 185.783 344.825 186.109C344.825 186.435 344.759 186.757 344.63 187.056C344.502 187.355 344.314 187.626 344.079 187.85C343.843 188.075 343.564 188.249 343.259 188.363C342.953 188.476 342.628 188.527 342.303 188.511H338.002V183.707ZM342.703 196.604H338.025V190.773H342.703C343.474 190.773 344.213 191.079 344.759 191.624C345.304 192.169 345.61 192.909 345.61 193.68C345.61 194.451 345.304 195.19 344.759 195.736C344.213 196.281 343.474 196.587 342.703 196.587V196.604ZM382.217 186.991C382.217 183.833 379.686 181.28 376.271 181.28H369.188V198.986H371.97V192.686H376.271C379.675 192.686 382.205 190.156 382.205 186.991H382.217ZM376.271 190.156H371.97V183.833H376.271C376.697 183.815 377.123 183.883 377.522 184.034C377.922 184.184 378.286 184.414 378.594 184.71C378.903 185.005 379.148 185.36 379.315 185.752C379.483 186.145 379.569 186.567 379.569 186.994C379.569 187.421 379.483 187.844 379.315 188.236C379.148 188.629 378.903 188.983 378.594 189.279C378.286 189.574 377.922 189.804 377.522 189.955C377.123 190.105 376.697 190.174 376.271 190.156V190.156ZM365.418 196.478H355.411V191.092H363.128V188.562H355.411V183.833H365.121V181.302H352.63V199.009H365.401L365.418 196.478ZM327.281 185.855H327.333V198.992H330.114V181.285H327.584L317.925 194.422H317.846V181.285H315.064V198.992H317.571L327.281 185.855ZM283.53 194.331C282.844 195.719 282.01 196.656 280.32 196.656C279.824 196.652 279.33 196.584 278.852 196.456V198.883C279.429 199.113 280.047 199.224 280.668 199.209C283.147 199.209 284.843 197.769 286.06 195.085L292.257 181.302H289.401L285.055 191.189H285.015L279.674 181.302H276.59L283.65 194.154L283.53 194.331ZM298.38 191.292H307.119V199.009H309.901V181.302H307.119V188.762H298.391V181.302H295.61V199.009H298.391L298.38 191.292ZM453.436 196.484H443.446V191.098H451.157V188.568H443.446V183.838H453.156V181.308H440.659V199.015H453.436V196.484ZM461.432 199.015H464.214V183.833H469.503V181.302H456.12V183.833H461.432V199.015ZM347.901 210.438H344.359L336.42 219.034V210.432H333.638V228.139H336.42V222.827L339.202 219.788L344.988 228.139H348.415L341.075 217.766L347.901 210.438ZM323.043 220.325H322.998L317.657 210.438H314.573L321.627 223.289L321.53 223.466C320.844 224.854 320.01 225.791 318.314 225.791C317.818 225.786 317.325 225.719 316.846 225.591V228.019C317.425 228.249 318.045 228.36 318.668 228.344C321.147 228.344 322.843 226.905 324.06 224.22L330.257 210.438H327.401L323.043 220.325ZM581.287 208.542C583.817 208.542 585.388 206.828 585.388 204.743H583.263C583.236 205.248 583.016 205.724 582.649 206.072C582.282 206.42 581.795 206.613 581.29 206.613C580.784 206.613 580.297 206.42 579.93 206.072C579.563 205.724 579.343 205.248 579.316 204.743H577.192C577.192 206.817 578.757 208.536 581.287 208.536V208.542ZM289.99 217.897H281.251V210.432H278.463V228.139H281.251V220.422H289.972V228.139H292.76V210.432H289.972L289.99 217.897ZM303.212 210.438L296.13 228.144H298.985L300.756 223.575H308.598L310.369 228.144H313.333L306.245 210.438H303.212ZM301.756 221.045L304.64 213.619H304.686L307.542 221.045H301.756ZM586.273 210.421L576.609 223.558H576.535V210.421H573.747V228.127H576.278L585.988 214.99H586.039V228.127H588.821V210.421H586.273ZM354.623 223.558H354.543V210.421H351.762V228.127H354.292L364.002 214.99H364.053V228.127H366.835V210.421H364.305L354.623 223.558ZM525.506 210.192C524.29 210.163 523.081 210.378 521.949 210.822C520.817 211.267 519.785 211.933 518.914 212.781C518.042 213.63 517.349 214.643 516.875 215.763C516.4 216.883 516.154 218.086 516.15 219.303C516.15 224.363 520.194 228.407 525.506 228.407C530.818 228.407 534.868 224.363 534.868 219.303C534.868 214.242 530.818 210.192 525.506 210.192ZM525.506 225.877C524.205 225.877 522.932 225.491 521.85 224.767C520.768 224.044 519.925 223.016 519.427 221.813C518.929 220.611 518.799 219.288 519.053 218.011C519.308 216.734 519.935 215.562 520.856 214.642C521.776 213.722 522.949 213.096 524.226 212.843C525.503 212.589 526.826 212.721 528.028 213.219C529.23 213.718 530.258 214.563 530.98 215.645C531.702 216.728 532.087 218.001 532.086 219.303C532.09 220.167 531.922 221.023 531.593 221.822C531.263 222.62 530.778 223.346 530.166 223.956C529.554 224.566 528.827 225.048 528.027 225.375C527.227 225.702 526.37 225.866 525.506 225.86V225.877ZM484.622 210.192C483.406 210.163 482.197 210.378 481.065 210.822C479.932 211.267 478.901 211.933 478.029 212.781C477.158 213.63 476.465 214.643 475.99 215.763C475.516 216.883 475.269 218.086 475.266 219.303C475.266 224.363 479.31 228.407 484.622 228.407C489.934 228.407 493.983 224.363 493.983 219.303C493.983 214.242 489.934 210.192 484.622 210.192ZM484.622 225.877C483.321 225.876 482.05 225.489 480.969 224.766C479.888 224.043 479.045 223.015 478.548 221.813C478.05 220.612 477.92 219.29 478.174 218.014C478.428 216.738 479.054 215.566 479.973 214.646C480.892 213.726 482.063 213.099 483.339 212.844C484.614 212.59 485.937 212.719 487.139 213.215C488.341 213.711 489.369 214.553 490.093 215.633C490.817 216.714 491.205 217.985 491.207 219.285C491.214 220.151 491.047 221.01 490.718 221.811C490.389 222.612 489.904 223.34 489.291 223.952C488.679 224.563 487.95 225.047 487.148 225.375C486.347 225.702 485.488 225.867 484.622 225.86V225.877ZM538.883 228.161H541.665V212.963H550.267V210.432H538.894L538.883 228.161ZM556.407 223.592H556.321V210.455H553.539V228.161H556.064L565.774 215.024H565.825V228.161H568.607V210.455H566.077L556.407 223.592ZM500.238 215.75C500.032 224.22 498.718 225.74 497.073 225.74C496.6 225.732 496.131 225.647 495.685 225.488V228.019C496.196 228.267 496.757 228.396 497.325 228.396C500.643 228.396 502.717 226.111 502.968 215.75L503.042 212.968H509.325V228.144H512.107V210.438H500.375L500.238 215.75ZM404.823 212.968H410.135V228.144H412.957V212.963H418.269V210.432H404.835L404.823 212.968ZM382.159 223.592H382.114V210.455H379.332V228.161H381.862L391.572 215.024H391.624V228.161H394.405V210.455H391.824L382.159 223.592ZM452.985 210.455H449.723L445.445 216.852H445.394L441.121 210.455H437.809L443.623 218.954L437.3 228.161H440.562L445.342 220.999H445.394L450.174 228.161H453.51L447.187 218.874L452.985 210.455ZM424.426 220.245H432.143V217.715H424.426V212.985H434.136V210.455H421.644V228.161H434.416V225.614H424.426V220.245ZM468.469 217.915H459.742V210.432H456.937V228.139H459.719V220.422H468.446V228.139H471.228V210.432H468.446L468.469 217.915Z" fill="#505569"/>
</g>
<defs>
<linearGradient id="paint0_linear_5993_396" x1="96.3346" y1="256.25" x2="133.249" y2="46.9042" gradientUnits="userSpaceOnUse">
<stop offset="0.05" stop-color="#0541F0"/>
<stop offset="0.21" stop-color="#126CF4"/>
<stop offset="0.44" stop-color="#22A2F9"/>
<stop offset="0.64" stop-color="#2DCAFC"/>
<stop offset="0.8" stop-color="#34E2FE"/>
<stop offset="0.9" stop-color="#37EBFF"/>
</linearGradient>
<linearGradient id="paint1_linear_5993_396" x1="140.342" y1="176.627" x2="176.692" y2="140.278" gradientUnits="userSpaceOnUse">
<stop offset="0.06" stop-color="#37EBFF"/>
<stop offset="0.19" stop-color="#36E7FF"/>
<stop offset="0.32" stop-color="#32DAFE"/>
<stop offset="0.45" stop-color="#2CC6FC"/>
<stop offset="0.58" stop-color="#23A9F9"/>
<stop offset="0.71" stop-color="#1883F6"/>
<stop offset="0.85" stop-color="#0B56F2"/>
<stop offset="0.9" stop-color="#0541F0"/>
</linearGradient>
<linearGradient id="paint2_linear_5993_396" x1="157.552" y1="238.066" x2="210.608" y2="92.2917" gradientUnits="userSpaceOnUse">
<stop offset="0.05" stop-color="#37EBFF"/>
<stop offset="0.16" stop-color="#2DC8FC"/>
<stop offset="0.34" stop-color="#1F98F8"/>
<stop offset="0.51" stop-color="#1472F4"/>
<stop offset="0.66" stop-color="#0C57F2"/>
<stop offset="0.8" stop-color="#0747F1"/>
<stop offset="0.9" stop-color="#0541F0"/>
</linearGradient>
<linearGradient id="paint3_linear_5993_396" x1="115.69" y1="190.343" x2="190.405" y2="115.622" gradientUnits="userSpaceOnUse">
<stop offset="0.11" stop-color="#0541F0"/>
<stop offset="0.89" stop-color="#37EBFF"/>
</linearGradient>
<clipPath id="clip0_5993_396">
<rect width="641.397" height="317" fill="white"/>
</clipPath>
</defs>
</svg>
